# xmcd
# 
# Track frame offsets:
#     150
#     17777
#     32857
#     48837
#     64200
#     81181
#     99420
#     116136
#     131628
#     152939
#     170084
#     187780
#     201185
#     215801
#     232359
#     248691
# 
# Disc length: 3555
# 
# Revision: 0
# Processed by: cddbd v1.5.2PL0 Copyright (c) Steve Scherf et al.
# Submitted via: BonkEnc v1.0.8
# 
DISCID=e90de110
DTITLE=Jo Dee Messina - Greatest Hits
DYEAR=2003
DGENRE=Country
TTITLE0=Was That My Life
TTITLE1=I'm Alright
TTITLE2=Heads Carolina,Tails California
TTITLE3=Bye-Bye
TTITLE4=Stand Beside Me
TTITLE5=Bring On The Rain (With Tim McGraw)
TTITLE6=Lesson In Leavin'
TTITLE7=That's The Way
TTITLE8=Burn
TTITLE9=Downtime
TTITLE10=Because You Love Me
TTITLE11=You're Not In Kansas Anymore
TTITLE12=Wishing Well
TTITLE13=You Belong In The Sun
TTITLE14=I Wish
TTITLE15=Bring On The Rain (Duet with Tim McGraw)
EXTD=
EXTT0=
EXTT1=
EXTT2=
EXTT3=
EXTT4=
EXTT5=
EXTT6=
EXTT7=
EXTT8=
EXTT9=
EXTT10=
EXTT11=
EXTT12=
EXTT13=
EXTT14=
EXTT15=
PLAYORDER=
